<svg width="300" height="300" xmlns="http://www.w3.org/2000/svg">
<defs>
  <linearGradient id="boardGradient" x1="0%" y1="0%" x2="100%" y2="100%">
    <stop offset="0%" style="stop-color:#f3f4f6;stop-opacity:1" />
    <stop offset="100%" style="stop-color:#e5e7eb;stop-opacity:1" />
  </linearGradient>
</defs>
<rect width="300" height="300" fill="url(#boardGradient)" stroke="#374151" stroke-width="2"/>
<line x1="100" y1="0" x2="100" y2="300" stroke="#374151" stroke-width="2"/>
<line x1="200" y1="0" x2="200" y2="300" stroke="#374151" stroke-width="2"/>
<line x1="0" y1="100" x2="300" y2="100" stroke="#374151" stroke-width="2"/>
<line x1="0" y1="200" x2="300" y2="200" stroke="#374151" stroke-width="2"/>
<rect x="5" y="5" width="90" height="90" fill="transparent" stroke="none" opacity="0.3"/>
<rect x="105" y="5" width="90" height="90" fill="transparent" stroke="none" opacity="0.3"/>
<rect x="205" y="5" width="90" height="90" fill="transparent" stroke="none" opacity="0.3"/>
<rect x="5" y="105" width="90" height="90" fill="transparent" stroke="none" opacity="0.3"/>
<rect x="105" y="105" width="90" height="90" fill="transparent" stroke="none" opacity="0.3"/>
<rect x="205" y="105" width="90" height="90" fill="transparent" stroke="none" opacity="0.3"/>
<rect x="5" y="205" width="90" height="90" fill="transparent" stroke="none" opacity="0.3"/>
<rect x="105" y="205" width="90" height="90" fill="transparent" stroke="none" opacity="0.3"/>
<rect x="205" y="205" width="90" height="90" fill="transparent" stroke="none" opacity="0.3"/>
<text x="150" y="280" font-family="Arial" font-size="14" text-anchor="middle" fill="#dc2626">Current Player: X</text>
<text x="150" y="30" font-family="Arial" font-size="12" text-anchor="middle" fill="#dc2626">Difficulty: Hard</text>
</svg>